<svg width="352" height="213" viewBox="0 0 352 213" fill="none" xmlns="http://www.w3.org/2000/svg">
<path d="M312.193 24.0938C299.881 14.1874 285.587 7.2529 270.162 3.57338C261.387 1.45058 252.472 0.459944 243.414 0.176904C236.763 -0.106136 229.97 0.0353757 223.319 0.0353757H128.076C121.424 0.0353757 114.631 0.0353843 107.98 0.176904C98.9225 0.459944 90.1482 1.45058 81.2325 3.57338C65.8068 7.2529 51.6548 14.1874 39.3426 24.0938C14.435 44.0481 -6.10352e-05 74.1919 -6.10352e-05 106.175C-6.10352e-05 138.159 14.435 168.303 39.3426 188.257C51.6548 198.163 65.9483 205.098 81.3739 208.777C90.1482 210.9 99.064 211.891 108.121 212.174C114.773 212.457 121.566 212.315 128.217 212.315H223.46C230.111 212.315 236.904 212.315 243.556 212.174C252.613 211.891 261.387 210.9 270.303 208.777C285.729 205.098 299.881 198.163 312.193 188.257C337.101 168.303 351.536 138.159 351.536 106.175C351.536 74.1919 337.101 44.0481 312.193 24.0938ZM265.633 134.762C260.963 138.017 255.727 139.999 250.207 140.848C244.688 141.697 239.027 141.555 233.508 141.555H118.169C112.508 141.555 106.989 141.697 101.47 140.848C95.809 139.999 90.7143 138.017 86.0442 134.762C76.7038 128.253 71.043 117.638 71.043 106.175C71.043 94.7123 76.7038 84.0982 86.0442 77.5883C90.7143 74.3334 95.9505 72.3521 101.47 71.503C106.989 70.6539 112.65 70.7954 118.169 70.7954H233.508C239.169 70.7954 244.688 70.6539 250.207 71.503C255.868 72.3521 260.963 74.3334 265.633 77.5883C274.973 84.0982 280.634 94.7123 280.634 106.175C280.776 117.638 275.115 128.253 265.633 134.762Z" fill="#1C1E20"/>
</svg>
